{
	"asset":{
		"generator":"Khronos glTF Blender I/O v3.6.28",
		"version":"2.0"
	},
	"extensionsUsed":[
		"KHR_materials_specular",
		"KHR_materials_ior"
	],
	"scene":0,
	"scenes":[
		{
			"name":"Scene",
			"nodes":[
				0
			]
		}
	],
	"nodes":[
		{
			"mesh":0,
			"name":"staircase_samba_265x150x85",
			"rotation":[
				0.7071067690849304,
				0,
				0,
				0.7071068286895752
			],
			"scale":[
				0.4671509265899658,
				0.4671509265899658,
				0.4671509265899658
			]
		}
	],
	"materials":[
		{
			"doubleSided":true,
			"extensions":{
				"KHR_materials_specular":{
					"specularColorFactor":[
						0,
						0,
						0
					]
				},
				"KHR_materials_ior":{
					"ior":1.4500000476837158
				}
			},
			"name":"Stringer",
			"pbrMetallicRoughness":{
				"baseColorTexture":{
					"index":0
				},
				"metallicFactor":0,
				"roughnessFactor":0.9683772325515747
			}
		},
		{
			"doubleSided":true,
			"extensions":{
				"KHR_materials_specular":{
					"specularColorFactor":[
						0,
						0,
						0
					]
				},
				"KHR_materials_ior":{
					"ior":1.4500000476837158
				}
			},
			"name":"Tread",
			"pbrMetallicRoughness":{
				"baseColorTexture":{
					"index":1
				},
				"metallicFactor":0,
				"roughnessFactor":0.9683772325515747
			}
		},
		{
			"doubleSided":true,
			"extensions":{
				"KHR_materials_specular":{
					"specularColorFactor":[
						1,
						1,
						1
					]
				},
				"KHR_materials_ior":{
					"ior":1
				}
			},
			"name":"Stairs_under",
			"pbrMetallicRoughness":{
				"baseColorTexture":{
					"index":2
				},
				"metallicFactor":0,
				"roughnessFactor":0.9683772325515747
			}
		}
	],
	"meshes":[
		{
			"name":"staircase_samba_265x150x85",
			"primitives":[
				{
					"attributes":{
						"POSITION":0,
						"NORMAL":1,
						"TEXCOORD_0":2
					},
					"indices":3,
					"material":0
				},
				{
					"attributes":{
						"POSITION":4,
						"NORMAL":5,
						"TEXCOORD_0":6
					},
					"indices":7,
					"material":1
				},
				{
					"attributes":{
						"POSITION":8,
						"NORMAL":9,
						"TEXCOORD_0":10
					},
					"indices":11,
					"material":2
				}
			]
		}
	],
	"textures":[
		{
			"sampler":0,
			"source":0
		},
		{
			"sampler":0,
			"source":0
		},
		{
			"sampler":0,
			"source":0
		}
	],
	"images":[
		{
			"mimeType":"image/png",
			"name":"texture",
			"uri":"texture.png"
		}
	],
	"accessors":[
		{
			"bufferView":0,
			"componentType":5126,
			"count":92,
			"max":[
				42.073143005371094,
				77.7491455078125,
				0.00010399999882793054
			],
			"min":[
				-42.926856994628906,
				-71.74056243896484,
				-264.99993896484375
			],
			"type":"VEC3"
		},
		{
			"bufferView":1,
			"componentType":5126,
			"count":92,
			"type":"VEC3"
		},
		{
			"bufferView":2,
			"componentType":5126,
			"count":92,
			"type":"VEC2"
		},
		{
			"bufferView":3,
			"componentType":5123,
			"count":120,
			"type":"SCALAR"
		},
		{
			"bufferView":4,
			"componentType":5126,
			"count":1408,
			"max":[
				42.073143005371094,
				77.74420166015625,
				-18.346038818359375
			],
			"min":[
				-42.926856994628906,
				-72.25074768066406,
				-264.99993896484375
			],
			"type":"VEC3"
		},
		{
			"bufferView":5,
			"componentType":5126,
			"count":1408,
			"type":"VEC3"
		},
		{
			"bufferView":6,
			"componentType":5126,
			"count":1408,
			"type":"VEC2"
		},
		{
			"bufferView":7,
			"componentType":5123,
			"count":2658,
			"type":"SCALAR"
		},
		{
			"bufferView":8,
			"componentType":5126,
			"count":40,
			"max":[
				42.073143005371094,
				64.10943603515625,
				0.00010399999882793054
			],
			"min":[
				-42.926856994628906,
				-72.2507553100586,
				-264.99993896484375
			],
			"type":"VEC3"
		},
		{
			"bufferView":9,
			"componentType":5126,
			"count":40,
			"type":"VEC3"
		},
		{
			"bufferView":10,
			"componentType":5126,
			"count":40,
			"type":"VEC2"
		},
		{
			"bufferView":11,
			"componentType":5123,
			"count":60,
			"type":"SCALAR"
		}
	],
	"bufferViews":[
		{
			"buffer":0,
			"byteLength":1104,
			"byteOffset":0,
			"target":34962
		},
		{
			"buffer":0,
			"byteLength":1104,
			"byteOffset":1104,
			"target":34962
		},
		{
			"buffer":0,
			"byteLength":736,
			"byteOffset":2208,
			"target":34962
		},
		{
			"buffer":0,
			"byteLength":240,
			"byteOffset":2944,
			"target":34963
		},
		{
			"buffer":0,
			"byteLength":16896,
			"byteOffset":3184,
			"target":34962
		},
		{
			"buffer":0,
			"byteLength":16896,
			"byteOffset":20080,
			"target":34962
		},
		{
			"buffer":0,
			"byteLength":11264,
			"byteOffset":36976,
			"target":34962
		},
		{
			"buffer":0,
			"byteLength":5316,
			"byteOffset":48240,
			"target":34963
		},
		{
			"buffer":0,
			"byteLength":480,
			"byteOffset":53556,
			"target":34962
		},
		{
			"buffer":0,
			"byteLength":480,
			"byteOffset":54036,
			"target":34962
		},
		{
			"buffer":0,
			"byteLength":320,
			"byteOffset":54516,
			"target":34962
		},
		{
			"buffer":0,
			"byteLength":120,
			"byteOffset":54836,
			"target":34963
		}
	],
	"samplers":[
		{
			"magFilter":9729,
			"minFilter":9987
		}
	],
	"buffers":[
		{
			"byteLength":54956,
			"uri":"Stairse2.bin"
		}
	]
}
